<?xml version="1.0" encoding="UTF-8" standalone="no"?>
<!-- Created with Inkscape (http://www.inkscape.org/) -->

<svg
   width="200.0px"
   height="200.0px"
   viewBox="0 0 200.0 200.0"
   version="1.1"
   id="SVGRoot"
   xmlns="http://www.w3.org/2000/svg"
   xmlns:svg="http://www.w3.org/2000/svg">
  <defs
     id="defs1634" />
  <g
     id="layer1">
    <g
       id="g1538"
       transform="matrix(2.7488046,0,0,3.2699941,-235.47601,-126.39955)">
      <path
         d="m 94.162168,46.605642 c 0.0017,0.0984 -0.06387,0.429002 -0.145101,0.734675 -0.09836,0.370147 -0.108627,0.753387 -0.03065,1.147469 0.06438,0.325437 0.09176,1.052627 0.06093,1.615976 -0.0762,1.391117 0.259089,2.104834 1.281981,2.728832 0.6665,0.406585 2.003508,0.894653 2.708978,0.988893 0.522687,0.06982 1.195646,0.184433 1.738572,0.296082 0.522682,0.107479 4.894672,0.08138 5.092782,-0.03041 0.0612,-0.03466 0.40374,-0.09341 0.76061,-0.130534 0.3569,-0.03713 0.83871,-0.119204 1.07067,-0.182396 0.23199,-0.06319 0.42177,-0.09312 0.42177,-0.06653 0,0.02661 0.14758,-0.003 0.32786,-0.0662 0.18032,-0.06299 0.45771,-0.139431 0.61642,-0.169846 0.15875,-0.03041 0.42001,-0.08487 0.58062,-0.12104 0.16042,-0.03615 0.39419,-0.08777 0.5191,-0.114674 0.5433,-0.117022 2.81062,-0.899256 4.44488,-1.5335 0.17846,-0.06926 0.36822,-0.117254 0.42176,-0.106653 0.0534,0.01058 0.0974,-0.02782 0.0974,-0.08532 0,-0.05752 0.30661,-0.224579 0.68136,-0.371238 1.03067,-0.403387 1.98669,-0.823279 2.08946,-0.917729 0.0505,-0.04641 0.17549,-0.09569 0.27804,-0.109497 0.10238,-0.01373 0.34895,-0.12797 0.54777,-0.253671 0.19887,-0.125704 0.59518,-0.326133 0.8807,-0.445405 0.28554,-0.119271 0.66511,-0.309617 0.84356,-0.422987 0.17846,-0.113367 0.45584,-0.243621 0.61642,-0.289449 0.22957,-0.06551 0.29203,-0.0366 0.29203,0.135213 0,0.120197 0.11706,0.419005 0.25978,0.664031 0.14291,0.24503 0.21591,0.445707 0.16227,0.445952 -0.0536,2.38e-4 0.10697,0.118031 0.35663,0.261764 0.44352,0.255151 0.56609,0.261938 5.19108,0.287339 2.60531,0.01439 6.22606,0.06013 8.0462,0.101807 8.01832,0.183623 7.62465,0.184007 7.79771,-0.0076 0.13417,-0.14851 0.11183,-0.190619 -0.13047,-0.248895 -0.16042,-0.03858 -0.23809,-0.102965 -0.17233,-0.143053 0.19318,-0.117948 1.07323,-1.438738 1.10561,-1.659504 0.0149,-0.111366 -0.0288,-0.215901 -0.10029,-0.232302 -0.0715,-0.01637 -0.13269,0.01042 -0.13604,0.05964 -0.0148,0.231057 -0.24991,0.712435 -0.4905,1.011507 -0.30274,0.376329 -0.55386,0.447537 -0.35126,0.09959 0.16973,-0.291706 0.17159,-0.484926 0.003,-0.484926 -0.0716,0 -0.12303,0.04025 -0.11446,0.08945 0.0396,0.231459 -0.027,0.395145 -0.13567,0.333307 -0.0662,-0.03762 -0.15335,0.02643 -0.19319,0.142341 -0.0398,0.115914 -0.18705,0.276388 -0.32689,0.356609 -0.24637,0.141416 -0.24863,0.131509 -0.0727,-0.326295 0.23006,-0.599287 -0.0131,-0.598624 -0.34761,0.0011 -0.12766,0.2296 -0.35817,0.489734 -0.51229,0.578083 l -0.28023,0.160632 0.27788,-0.413252 c 0.45298,-0.673623 0.31884,-0.739756 -0.31635,-0.155968 -0.32684,0.30038 -0.62033,0.546144 -0.65224,0.546144 -0.0318,0 0.0346,-0.16465 0.14795,-0.365905 0.27451,-0.48786 0.16935,-0.735167 -0.1206,-0.283897 -0.20833,0.324134 -0.83048,0.714173 -0.95563,0.59913 -0.029,-0.02649 0.009,-0.153057 0.0832,-0.281246 0.22395,-0.384597 0.009,-0.39437 -0.36427,-0.01674 -0.36101,0.363241 -0.5291,0.354008 -0.5291,-0.02904 0,-0.286656 -0.1567,-0.277975 -0.35924,0.01986 -0.22674,0.33373 -0.67879,0.323234 -0.58295,-0.01356 0.0638,-0.224108 0.0416,-0.237274 -0.19959,-0.118626 -0.14925,0.07339 -0.30359,0.181446 -0.34301,0.240106 -0.041,0.06079 -1.39756,0.07913 -3.15436,0.04263 -1.69543,-0.03523 -3.76571,-0.06412 -4.60063,-0.06423 l -1.51803,-2.39e-4 0.0592,-0.371056 0.0594,-0.371055 -0.1987,0.393087 c -0.24065,0.476205 -0.51243,0.38876 -0.39986,-0.128648 0.0776,-0.356639 0.0746,-0.35905 -0.18143,-0.145963 -0.14331,0.119155 -0.26051,0.285693 -0.26051,0.370052 0,0.08436 -0.0628,0.189121 -0.13977,0.232797 -0.0961,0.05467 -0.11612,-0.101013 -0.064,-0.49987 l 0.0759,-0.579278 -0.24329,0.477087 c -0.1338,0.2624 -0.21871,0.516729 -0.18863,0.56518 0.0301,0.04844 -0.0326,0.05729 -0.13939,0.01968 -0.14888,-0.05252 -0.16563,-0.137198 -0.0717,-0.364216 0.16079,-0.388711 0.15651,-0.790842 -0.009,-0.697719 -0.11519,0.06536 -0.19319,-0.185429 -0.1418,-0.456139 0.009,-0.05406 -0.0412,-0.06432 -0.11445,-0.02277 -0.0729,0.04154 -0.13306,0.153472 -0.13306,0.248711 0,0.287306 -0.52474,1.220481 -0.72628,1.291551 -0.1513,0.05328 -0.16116,0.01991 -0.0508,-0.16949 0.0757,-0.129723 0.18405,-0.235865 0.24093,-0.235865 0.0569,0 0.10621,-0.06709 0.10923,-0.149089 0.003,-0.08201 0.0405,-0.401712 0.0832,-0.710474 0.0426,-0.308762 0.0283,-0.589305 -0.0315,-0.623432 -0.0601,-0.0341 -0.14404,0.171983 -0.18682,0.458012 -0.0426,0.286034 -0.20699,0.727598 -0.36514,0.981249 -0.3623,0.581075 -0.35587,0.573964 -0.44491,0.492153 -0.0409,-0.03764 0.028,-0.247854 0.15352,-0.467151 0.12524,-0.219292 0.24514,-0.479228 0.26627,-0.577628 0.34557,-1.610434 0.38308,-1.923314 0.29389,-2.45238 -0.15185,-0.900632 -0.1848,-0.998754 -0.42438,-1.255812 -0.12245,-0.13141 -0.19101,-0.285747 -0.1526,-0.342978 0.0387,-0.05767 3.39886,-0.09506 7.53571,-0.0839 6.41671,0.01733 7.48239,0.04483 7.58384,0.195736 0.10081,0.15018 0.13046,0.145863 0.20382,-0.02982 0.11072,-0.265052 0.39866,-0.263341 0.56314,0.0033 0.12133,0.196895 0.13901,0.195982 0.30952,-0.01604 0.17512,-0.21791 0.18943,-0.216301 0.46169,0.05231 l 0.28096,0.277131 v -0.283349 -0.283348 l 0.40784,0.350313 c 0.38038,0.32672 0.40302,0.33224 0.33659,0.08194 -0.0843,-0.31761 -0.0623,-0.321804 0.46883,-0.08962 0.41774,0.182591 1.12273,1.06611 1.12273,1.40708 0,0.10404 0.0539,0.219883 0.12022,0.257407 0.066,0.03753 0.0994,0.218201 0.0742,0.40151 -0.0253,0.183305 1.4e-4,0.401797 0.0565,0.485536 0.1912,0.284461 0.26737,-0.197417 0.13361,-0.845896 -0.12989,-0.629831 -0.34102,-1.018241 -0.81302,-1.496277 -0.14553,-0.147336 -0.23464,-0.295343 -0.19814,-0.328897 0.15093,-0.138852 0.96084,0.518907 1.32205,1.073879 0.34871,0.535717 0.3885,0.699452 0.39118,1.610173 0.001,0.557597 -0.0316,1.094322 -0.0742,1.192722 -0.0424,0.0984 -0.11725,0.293021 -0.16637,0.432494 -0.0491,0.139464 -0.23025,0.322975 -0.40269,0.407789 -0.34266,0.168554 -0.41915,0.528196 -0.13362,0.628862 0.0986,0.03489 0.33438,-0.08494 0.52337,-0.26623 0.36131,-0.346605 0.37907,-0.349608 2.48038,-0.420225 1.04652,-0.03519 1.35355,-0.154298 1.76442,-0.684598 0.43165,-0.557122 0.42831,-1.764451 -0.005,-2.4239 -0.63706,-0.965749 -0.95091,-1.10282 -2.47625,-1.081443 -1.21198,0.01698 -1.94591,-0.14125 -1.94591,-0.419559 0,-0.06779 -0.0583,-0.09008 -0.12971,-0.04953 -0.0715,0.04055 -0.12972,0.02117 -0.12972,-0.04301 0,-0.0642 -0.2978,-0.207632 -0.66178,-0.318745 -0.59771,-0.182454 -1.60006,-0.202409 -10.34973,-0.20605 -5.32838,-0.0023 -9.84343,0.02628 -10.03345,0.06336 -0.57353,0.111879 -0.87501,0.312251 -1.21535,0.807749 -0.17828,0.259578 -0.35722,0.47196 -0.3976,0.47196 -0.0401,0 -0.50525,-0.190895 -1.03301,-0.424211 -0.52781,-0.233314 -0.98978,-0.422431 -1.02657,-0.420258 -0.0369,0.0023 -0.69538,-0.285963 -1.46352,-0.640306 -0.76816,-0.354342 -1.55725,-0.680931 -1.75353,-0.725755 -0.19636,-0.04482 -0.35691,-0.132518 -0.35691,-0.194879 0,-0.06236 -0.0536,-0.08289 -0.11928,-0.04561 -0.0655,0.03728 -0.19841,1.91e-4 -0.29509,-0.08241 -0.17232,-0.14722 -0.36446,-0.213981 -0.75361,-0.261794 -0.19455,-0.02393 -0.38795,-0.09311 -1.36264,-0.487584 -0.28553,-0.11555 -0.63591,-0.21888 -0.77868,-0.229615 -0.14274,-0.01075 -0.69756,-0.145731 -1.2329,-0.299983 -0.53531,-0.154249 -1.11932,-0.296716 -1.29772,-0.316574 -0.17847,-0.01986 -0.47048,-0.0617 -0.64891,-0.09299 -0.17828,-0.03127 -0.49964,-0.08388 -0.71375,-0.116873 -0.21416,-0.03298 -0.56457,-0.08831 -0.77866,-0.122959 -1.01872,-0.164783 -1.35967,-0.195568 -2.1682,-0.195732 -0.47871,-1.01e-4 -0.90615,-0.05335 -0.94986,-0.118328 -0.0436,-0.06498 -0.13153,-0.08863 -0.19504,-0.05252 -0.0636,0.03612 -0.48293,0.08925 -0.93191,0.118113 -0.90002,0.05785 -1.68179,0.141531 -2.17901,0.233258 -0.17844,0.03291 -0.516949,0.08883 -0.752249,0.124216 -0.851694,0.128152 -1.933835,0.389137 -2.242067,0.540747 -0.173259,0.08522 -0.329861,0.144904 -0.348027,0.13265 -0.226222,-0.152694 -1.929316,0.763723 -2.414236,1.299061 -0.472713,0.521867 -0.688665,1.374101 -0.568218,2.242421 0.06057,0.436667 0.111307,0.874444 0.112722,0.972842 z m 0.335503,-1.820925 c 0.02985,-0.181509 0.109649,-0.298564 0.177334,-0.260117 0.06769,0.03845 0.08742,0.122909 0.04385,0.187708 -0.115641,0.171957 0.06093,0.722686 0.205371,0.64063 0.06753,-0.03835 0.102425,-0.230409 0.07753,-0.426782 -0.02486,-0.196376 0.06417,-0.554243 0.197872,-0.795263 0.279243,-0.503389 0.290712,-0.548182 0.114804,-0.448265 -0.07388,0.04197 -0.09514,-0.0065 -0.05012,-0.114343 0.04299,-0.102964 0.173743,-0.172843 0.29051,-0.15529 0.116778,0.01755 0.200067,-0.02878 0.185038,-0.102965 -0.03197,-0.157837 0.381026,-0.527265 0.632353,-0.565679 0.09547,-0.01455 0.290405,-0.08575 0.433157,-0.158135 0.142757,-0.07239 0.305862,-0.131327 0.362457,-0.131013 0.05659,3.25e-4 0.26099,-0.05242 0.454218,-0.117203 0.780783,-0.261781 1.433473,-0.410301 1.591017,-0.362037 0.09161,0.02806 -0.237404,0.148559 -0.731205,0.267754 -0.493804,0.119189 -1.043826,0.302706 -1.222265,0.407811 -0.178432,0.105098 -0.499644,0.278572 -0.713774,0.385484 -0.407745,0.203571 -1.12412,1.055416 -1.019016,1.211712 0.03354,0.04989 0.0086,0.09073 -0.0554,0.09073 -0.06402,0 -0.124948,0.174435 -0.135388,0.387634 -0.03769,0.769224 -0.290387,1.284085 -0.634872,1.293474 -0.209556,0.0056 -0.308661,-0.596243 -0.203467,-1.235862 z m 0.03006,2.530862 c 0.06559,0.09528 0.09294,0.212323 0.06079,0.260121 -0.03216,0.04779 -0.0017,0.119073 0.06738,0.158383 0.06919,0.03931 0.187382,-0.138571 0.262599,-0.395321 0.07524,-0.256735 0.228007,-0.536385 0.339524,-0.621444 0.111528,-0.08505 0.178023,-0.241594 0.147781,-0.347858 -0.03882,-0.136371 0.03208,-0.193201 0.240888,-0.193201 h 0.295863 l -0.2789,0.359971 c -0.153383,0.197983 -0.294007,0.415356 -0.312471,0.483052 -0.01843,0.06769 -0.07183,0.284099 -0.118527,0.480898 -0.04675,0.196799 -0.193793,0.453833 -0.326769,0.571191 -0.132987,0.117352 -0.241792,0.264951 -0.241792,0.327997 0,0.06304 -0.0584,0.114624 -0.129786,0.114624 -0.07171,0 -0.128892,-0.306903 -0.127793,-0.685815 0.0011,-0.463503 0.04064,-0.629669 0.121206,-0.512601 z m -0.07658,2.99744 c 0.131851,0.140522 0.210519,0.718404 0.08833,0.649012 -0.07422,-0.04217 -0.134977,-0.21663 -0.134977,-0.387691 0,-0.171059 0.02098,-0.288658 0.04662,-0.261321 z m 0.169089,-0.755391 c 0.03599,0.08199 0.03599,0.216179 0,0.298179 -0.03599,0.08199 -0.06546,0.01488 -0.06546,-0.149089 0,-0.164006 0.02945,-0.23109 0.06546,-0.14909 z m 0.04383,1.699628 c 0.06919,0.0984 0.125801,0.23258 0.125801,0.298179 0,0.06561 -0.05661,0.03876 -0.125801,-0.05964 -0.06919,-0.0984 -0.125804,-0.23258 -0.125804,-0.298181 0,-0.06561 0.05661,-0.03877 0.125804,0.05964 z m 0.273183,-1.461085 c 0.07098,-0.114789 0.08982,-0.208727 0.04183,-0.208727 -0.048,0 -0.0207,-0.07371 0.06067,-0.163791 0.08134,-0.09008 0.110543,-0.253297 0.06488,-0.362697 -0.04569,-0.109398 -0.0321,-0.190349 0.0302,-0.179898 0.261654,0.04389 0.447748,-0.01707 0.376314,-0.123307 -0.04219,-0.06273 -0.177018,-0.08188 -0.299659,-0.04254 -0.376111,0.120677 1.010683,-1.119155 1.512431,-1.352156 0.258958,-0.120264 0.57916,-0.299617 0.711564,-0.398579 0.132392,-0.09896 0.264239,-0.165131 0.292968,-0.147055 0.0287,0.01808 0.387601,-0.05775 0.797484,-0.168509 0.409888,-0.110771 0.930464,-0.213724 1.156834,-0.22879 0.22637,-0.01505 0.471041,-0.06116 0.543711,-0.102435 0.27342,-0.155307 5.98775,-0.31994 5.98775,-0.172508 0,0.05644 -0.36498,0.106868 -0.8111,0.112044 -0.87018,0.01009 -1.73778,0.05803 -3.08219,0.170292 -0.46396,0.03875 -1.08241,0.08834 -1.37439,0.110208 -0.29196,0.02188 -0.66277,0.07824 -0.82402,0.125274 -0.161272,0.04703 -0.418778,0.102816 -0.572267,0.123935 -0.153514,0.02114 -0.42508,0.07267 -0.603526,0.114508 -0.178431,0.04186 -0.499639,0.103841 -0.713773,0.137727 -0.214134,0.03392 -0.68939,0.215652 -1.056127,0.403884 -0.366732,0.188234 -0.702532,0.318341 -0.746218,0.289127 -0.0437,-0.02922 -0.05154,-0.01857 -0.0173,0.02367 0.03407,0.04225 -0.113223,0.260144 -0.327302,0.48423 -0.214078,0.224087 -0.359389,0.451806 -0.322917,0.506047 0.03646,0.05424 -0.02065,0.164949 -0.126901,0.246006 -0.106282,0.08105 -0.193238,0.251332 -0.193238,0.378373 0,0.144226 -0.05626,0.199011 -0.149847,0.14588 -0.08241,-0.04682 -0.116275,-0.03519 -0.07525,0.0258 0.04102,0.06099 0.08801,0.458408 0.104441,0.883151 0.0173,0.451642 0.126324,0.950267 0.262281,1.201011 0.305445,0.563464 1.0294,1.13745 1.568282,1.243411 0.237278,0.04665 0.504416,0.138869 0.593638,0.204936 0.08924,0.06605 0.162223,0.08481 0.162223,0.04167 0,-0.04313 0.112608,-0.02304 0.250295,0.04467 0.272847,0.134188 0.821629,0.218769 2.013936,0.310343 0.42448,0.03261 0.80408,0.09026 0.84355,0.128102 0.10844,0.104023 -2.073148,-0.05271 -2.556226,-0.183651 -0.231977,-0.06288 -0.421778,-0.08466 -0.421778,-0.04841 0,0.03627 -0.08146,0.0038 -0.181,-0.07214 -0.09956,-0.07592 -0.230948,-0.128995 -0.291998,-0.117931 -0.232403,0.04217 -0.954542,-0.165997 -0.954542,-0.275165 0,-0.06288 -0.073,-0.08983 -0.162223,-0.05993 -0.08924,0.02988 -0.344814,-0.07067 -0.567978,-0.223449 -0.223171,-0.152793 -0.434954,-0.25097 -0.470636,-0.218179 -0.03568,0.0328 -0.09873,-0.02147 -0.140133,-0.120611 -0.04138,-0.09913 -0.0106,-0.217082 0.06891,-0.26212 0.09337,-0.05302 0.107176,-0.02687 0.03918,0.07426 -0.06745,0.100286 -0.05417,0.127259 0.03712,0.07541 0.09564,-0.05431 0.0349,-0.270637 -0.18556,-0.661167 C 94.8669,50.863805 94.73928,50.116762 94.93749,49.796166 Z m 0.887958,0.278554 c 0.07726,-0.114888 0.138569,-0.111564 0.279994,0.01505 0.433429,0.3883 1.132156,0.809575 1.342763,0.809575 0.15878,0 0.203743,0.05988 0.147018,0.195777 -0.0646,0.154728 -0.04461,0.167451 0.09537,0.06068 0.09743,-0.07431 0.2024,-0.111879 0.233288,-0.0835 0.110226,0.101294 1.361805,0.235835 2.191066,0.235514 0.94242,-3.57e-4 2.55566,-0.113516 4.02304,-0.282167 0.53537,-0.06154 1.29454,-0.141002 1.68714,-0.176631 0.61055,-0.0554 0.6481,-0.04826 0.25954,0.0495 -1.02905,0.258877 -1.48605,0.340051 -2.38478,0.423605 -0.34805,0.03236 -0.69791,0.0958 -0.77745,0.140985 -0.0795,0.0452 -1.05253,0.09294 -2.16216,0.10614 -2.232498,0.02654 -2.827129,-0.06833 -4.10143,-0.654366 -0.808495,-0.371814 -1.011068,-0.576055 -0.833401,-0.840259 z m 0.234164,-5.971566 c 0.664488,-1.215945 3.850774,-2.025874 7.709955,-1.959802 1.69125,0.02896 2.16777,0.06334 3.0938,0.223194 0.2498,0.04311 0.5418,0.09351 0.6489,0.111977 0.10696,0.01846 0.39904,0.07212 0.64887,0.119271 0.24981,0.04713 0.55474,0.09893 0.67758,0.115087 0.12302,0.01621 0.26397,0.06671 0.31363,0.112342 0.0497,0.04563 0.20079,0.08297 0.33586,0.08297 0.13511,0 0.21457,0.04612 0.17679,0.102519 -0.0378,0.05638 0.0608,0.09003 0.21943,0.07478 0.15856,-0.01521 0.58039,0.04644 0.93731,0.137049 0.35687,0.09063 0.76548,0.190607 0.908,0.222199 0.14255,0.0316 0.27768,0.108621 0.30038,0.171193 0.0229,0.06256 0.11928,0.08626 0.21443,0.05269 0.0951,-0.03359 0.21228,-0.003 0.2601,0.06828 0.0478,0.07115 0.14144,0.09847 0.20782,0.06073 0.0662,-0.03774 0.12078,-0.0061 0.12078,0.07045 0,0.08456 -0.089,0.10652 -0.2271,0.05603 -0.32353,-0.118311 -1.16206,-0.257188 -2.23869,-0.3708 -0.39253,-0.04143 -0.75483,-0.09781 -0.80502,-0.125291 -0.12357,-0.06766 -1.30517,-0.186955 -2.17983,-0.220087 -0.39258,-0.01488 -0.74297,-0.03903 -0.77867,-0.05368 -0.22552,-0.09265 -3.27293,0.03122 -4.28264,0.174078 -0.24981,0.03532 -0.62942,0.08686 -0.84355,0.114491 -0.21413,0.02762 -0.53534,0.08021 -0.71377,0.11684 -0.17843,0.03663 -0.49964,0.09476 -0.71377,0.129194 -0.214143,0.0344 -0.622939,0.159524 -0.908449,0.277996 -0.285514,0.118494 -0.796511,0.284598 -1.135551,0.369145 -0.339044,0.08456 -0.616442,0.209367 -0.616442,0.277374 0,0.068 -0.03628,0.09028 -0.08069,0.0495 -0.0444,-0.04078 -0.36364,0.05762 -0.709459,0.218665 -0.345825,0.161063 -0.659908,0.29283 -0.69797,0.29283 -0.154852,0 -0.05404,-0.683017 0.158111,-1.071217 z m 0.551351,1.250125 c 0.356888,-0.166209 0.648888,-0.268765 0.648888,-0.227899 0,0.100303 -0.554203,0.495445 -0.702106,0.500596 -0.06496,0.0023 -0.170059,0.08942 -0.233565,0.193707 -0.145399,0.23879 -0.3621,0.246385 -0.3621,0.01273 0,-0.09731 0.291999,-0.312888 0.648883,-0.479099 z m -0.0973,6.058231 c 0.303354,0.138537 0.580752,0.257069 0.616442,0.263401 0.03568,0.0063 0.181689,0.04702 0.324442,0.09043 1.364171,0.414722 4.65289,0.425986 6.61864,0.02267 0.0715,-0.01472 0.33419,-0.05788 0.58401,-0.09608 0.53714,-0.08214 1.49058,-0.264404 1.94665,-0.372122 0.17846,-0.04216 0.49964,-0.102716 0.71376,-0.134635 0.21415,-0.0319 1.20695,-0.198317 2.20625,-0.369819 0.99926,-0.171501 1.94826,-0.316667 2.10885,-0.322589 0.16041,-0.006 0.29198,-0.04029 0.29198,-0.07637 0,-0.03607 0.1314,-0.07111 0.29202,-0.07784 0.16042,-0.0068 0.4234,-0.0443 0.584,-0.0835 0.73852,-0.180172 0.89667,-0.210426 1.20044,-0.229633 0.17848,-0.01125 0.35365,-0.05403 0.38933,-0.09498 0.11557,-0.132683 0.90845,-0.247309 0.90845,-0.131344 0,0.120942 -1.66947,0.821136 -1.8415,0.772354 -0.0578,-0.01637 -0.10493,0.02385 -0.10493,0.08945 0,0.0656 -0.0439,0.110902 -0.0974,0.100699 -0.0534,-0.01009 -0.38933,0.100599 -0.74626,0.246252 -0.63013,0.257181 -0.76468,0.309244 -1.53097,0.592381 -0.19963,0.07376 -0.47703,0.134122 -0.61642,0.134122 -0.13959,0 -0.25346,0.04473 -0.25346,0.09939 0,0.05467 -0.0729,0.105197 -0.16228,0.112292 -0.21463,0.01703 -0.50343,0.09078 -0.76052,0.194118 -0.11501,0.04621 -0.35096,0.09792 -0.52457,0.114938 -0.17363,0.01698 -0.37201,0.06296 -0.44092,0.102088 -0.15391,0.08734 -1.12464,0.269533 -1.25886,0.236232 -0.0534,-0.01323 -0.0974,0.02059 -0.0974,0.07525 0,0.05467 -0.0729,0.106421 -0.16209,0.114988 -0.89502,0.0861 -1.38167,0.148212 -1.65467,0.211185 -0.49081,0.113218 -4.23135,0.143152 -4.9153,0.03933 -0.330128,-0.05011 -0.833829,-0.126862 -1.119337,-0.170533 -0.28551,-0.04369 -0.553225,-0.09863 -0.594918,-0.122083 -0.04168,-0.02345 -0.275294,-0.07478 -0.519113,-0.114078 -0.840447,-0.135412 -1.935733,-0.88586 -1.935733,-1.326296 0,-0.0919 0.19344,-0.0532 0.551551,0.11034 z m -0.240124,-2.64905 c 0.141008,-0.107563 0.286217,-0.08458 0.648885,0.102634 0.25698,0.132666 0.467236,0.208692 0.467236,0.168983 0,-0.03971 0.07301,-0.01935 0.162223,0.04521 0.144561,0.104618 0.71913,0.278649 1.070661,0.324251 0.07138,0.0093 0.334178,0.05709 0.583997,0.106305 0.854166,0.168232 3.346576,0.252879 4.432896,0.150544 0.26106,-0.02459 1.16627,-0.08152 2.01154,-0.126481 1.7019,-0.09056 2.46377,-0.136289 4.00264,-0.240272 2.40853,-0.162749 2.86751,-0.201833 3.10111,-0.264086 0.20603,-0.05491 0.21844,-0.03845 0.0764,0.101327 -0.0933,0.09179 -0.26238,0.171521 -0.37574,0.177178 -0.24423,0.01224 -0.98291,0.121868 -1.43904,0.213676 -0.17829,0.03594 -0.58724,0.09762 -0.90845,0.137132 -0.32117,0.03949 -0.64238,0.07983 -0.71378,0.08965 -0.0714,0.0099 -0.15893,0.05178 -0.19477,0.09326 -0.0355,0.04149 -0.32767,0.111581 -0.64887,0.155787 -0.32119,0.04419 -0.78839,0.108472 -1.03823,0.142838 -0.24981,0.03437 -0.65861,0.08109 -0.90841,0.103824 -0.24982,0.02274 -0.45422,0.0494 -0.45422,0.05922 0,0.03437 -1.02557,0.175181 -2.20623,0.302962 -2.09046,0.226248 -5.199556,0.264323 -5.580418,0.06834 -0.07138,-0.03672 -0.20278,-0.08171 -0.291997,-0.09996 -0.08924,-0.01823 -0.236216,-0.04789 -0.326653,-0.0659 -0.342907,-0.06827 -1.083604,-0.562469 -1.362366,-0.908998 -0.335027,-0.416466 -0.364267,-0.642292 -0.10844,-0.837425 z m 0.467234,-2.633912 c 0.28551,-0.207824 0.519107,-0.343783 0.519107,-0.302131 0,0.04164 0.195321,-0.06117 0.43403,-0.228522 0.238712,-0.167338 0.533611,-0.304252 0.655331,-0.304252 0.121728,0 0.393602,-0.08189 0.60419,-0.181972 0.210587,-0.100088 0.382886,-0.154183 0.382886,-0.120231 0,0.03395 0.219,-0.01571 0.486665,-0.11039 0.267665,-0.09466 0.661875,-0.198492 0.875995,-0.230721 0.21413,-0.03225 0.73973,-0.114988 1.168,-0.183911 2.24879,-0.361909 4.76855,-0.381834 7.45742,-0.05899 0.3238,0.03888 0.76396,0.08911 0.97811,0.11158 0.21413,0.02248 0.5645,0.0729 0.77866,0.112028 0.91708,0.167556 1.05308,0.192122 1.33536,0.241224 0.16339,0.02844 0.74742,0.166315 1.29777,0.306414 0.55033,0.140092 1.10158,0.273655 1.225,0.296786 0.12321,0.02315 0.32781,0.09694 0.45424,0.164039 0.15893,0.08436 -0.71076,0.102022 -2.81995,0.05725 -6.06835,-0.12878 -11.31544,-0.07058 -12.48216,0.138439 -0.1655,0.02962 -0.505292,0.08517 -0.75511,0.123389 -0.707407,0.108223 -2.026303,0.505984 -2.51612,0.758827 -0.781778,0.403557 -0.840877,-0.03458 -0.07941,-0.588858 z m 0.551554,2.116879 c 0.231975,0.104618 0.457507,0.239286 0.501174,0.299229 0.04368,0.05995 0.102069,0.09885 0.129786,0.08648 0.02769,-0.0124 0.371576,0.0081 0.764153,0.04541 1.472047,0.140076 2.576767,0.208561 4.123677,0.255638 0.87615,0.02666 1.6459,0.07854 1.71057,0.115268 0.0648,0.03672 0.1492,0.01955 0.18822,-0.03824 0.08,-0.119073 2.25922,-0.151123 2.33638,-0.03437 0.10494,0.158764 -6.66811,0.261518 -7.450389,0.113037 -0.178432,-0.03389 -0.58724,-0.102701 -0.90844,-0.152943 -0.321197,-0.05026 -0.743985,-0.166605 -0.939526,-0.258579 -0.195534,-0.09198 -0.384724,-0.167603 -0.420413,-0.168066 -0.212031,-0.0026 -0.456942,-0.161475 -0.456942,-0.296118 0,-0.123009 0.09133,-0.115815 0.421778,0.03324 z m 0.917963,-0.672393 c 0.770856,-0.187943 1.645979,-0.370833 2.099367,-0.438731 0.21412,-0.03205 0.53532,-0.09116 0.71377,-0.131311 0.79437,-0.178741 4.39999,-0.29271 9.66258,-0.305419 5.42549,-0.01306 9.2849,0.196567 9.2849,0.504424 0,0.05406 -0.24819,0.13619 -0.55156,0.182486 -0.30334,0.04631 -0.63915,0.09835 -0.74621,0.115698 -0.89803,0.145368 -1.43862,0.216349 -1.88179,0.247073 -0.2855,0.0198 -0.5191,0.04495 -0.5191,0.0559 0,0.01092 -0.4088,0.03342 -0.90843,0.04998 -1.09899,0.03637 -3.13453,0.167507 -4.02312,0.259183 -0.35688,0.03683 -1.05767,0.08932 -1.55731,0.116691 -0.49962,0.02735 -1.49241,0.08926 -2.2062,0.137545 -2.1406,0.144839 -7.44437,0.05706 -8.500426,-0.140687 -0.107063,-0.02004 -0.439255,-0.0771 -0.738201,-0.126779 -0.747679,-0.124249 -0.8054,-0.360964 -0.12826,-0.526056 z m 0.02239,-2.85382 c 0.178749,-0.07485 0.324993,-0.08982 0.324993,-0.03329 0,0.09903 -0.532359,0.277476 -0.611323,0.204906 -0.02123,-0.01953 0.107584,-0.09676 0.28633,-0.171622 z m 0.722959,-0.205746 c 0.07613,-0.04323 0.172942,-0.04687 0.21517,-0.0081 0.04223,0.0388 0.169722,0.0065 0.283365,-0.07176 0.172142,-0.118576 0.179883,-0.114723 0.04642,0.02304 -0.0881,0.09092 -0.277902,0.173299 -0.421773,0.183041 -0.29437,0.01994 -0.325079,-0.01158 -0.123179,-0.126233 z m 0.991542,-0.225971 c 0.184966,-0.06473 0.199856,-0.05102 0.07265,0.06678 -0.08803,0.08152 -0.192695,0.118163 -0.232661,0.08143 -0.03994,-0.03671 0.0321,-0.103411 0.160081,-0.148212 z m 0.597866,-0.174693 c 0.16495,-0.08113 0.52986,-0.16993 0.81091,-0.197335 0.28106,-0.0274 0.68029,-0.08519 0.8872,-0.128399 0.25462,-0.05319 0.34816,-0.0369 0.28945,0.05042 -0.0476,0.07093 -0.18778,0.130782 -0.3113,0.132965 -0.28989,0.0053 -1.11367,0.09531 -1.19788,0.131128 -0.0356,0.01521 -0.11482,0.01935 -0.17588,0.0093 -0.061,-0.0099 -0.19386,0.0449 -0.29514,0.122148 -0.10134,0.07723 -0.21184,0.114988 -0.24569,0.08388 -0.0339,-0.03112 0.0734,-0.122959 0.23833,-0.204079 z m 1.02993,9.480245 c 0.16061,0.01637 0.5548,0.04058 0.876,0.05381 0.51289,0.02114 0.53703,0.03329 0.19817,0.100005 -0.4595,0.09046 -1.36616,0.02624 -1.36616,-0.09678 0,-0.04774 0.13138,-0.07343 0.29199,-0.05705 z m 1.38945,-9.877478 c 0.3194,-0.08244 0.50425,-0.03312 0.36288,0.09681 -0.0416,0.0381 -0.21179,0.05042 -0.37853,0.02735 l -0.30313,-0.04189 z m 0.72708,-2.238636 c 0.11123,0 0.16553,0.05454 0.12088,0.121222 -0.0448,0.06668 -0.13594,0.09035 -0.20234,0.05259 -0.18002,-0.102237 -0.14645,-0.173813 0.0815,-0.173813 z m 0.0174,2.137774 c 0.1291,-0.0051 0.33698,-0.02711 0.46187,-0.04908 0.12489,-0.022 0.22713,0.003 0.22713,0.05522 0,0.132088 -0.77473,0.224634 -0.85693,0.10237 -0.0369,-0.05466 0.0388,-0.103494 0.16799,-0.108522 z m 0.55921,9.927546 c 0.17834,0 0.25145,0.02706 0.16237,0.06015 -0.0894,0.03311 -0.23522,0.03311 -0.32443,0 -0.0892,-0.03309 -0.0157,-0.06015 0.16237,-0.06015 z m 1.13888,-11.91319 c 0.585,0.02378 1.10489,0.08118 1.1554,0.127556 0.0505,0.04637 -0.40133,0.05105 -1.00397,0.01042 -1.42054,-0.09587 -1.52823,-0.193914 -0.15131,-0.137942 z m -0.62876,1.907669 c 0.13778,0.0096 0.22195,0.05987 0.18703,0.111846 -0.0889,0.132253 -0.43758,0.118427 -0.43758,-0.01733 0,-0.06152 0.1129,-0.104039 0.25056,-0.09451 z m 0.52004,0.03205 c 0.16041,-0.09117 0.9165,-0.03619 0.9165,0.06665 0,0.04407 -0.23359,0.07617 -0.5191,0.07131 -0.54646,-0.0093 -0.59456,-0.02598 -0.3974,-0.137976 z m 0.48914,9.783402 c 0.18517,-0.06473 0.19987,-0.05102 0.0726,0.06678 -0.0883,0.08152 -0.19278,0.118163 -0.23274,0.08143 -0.0398,-0.03671 0.0321,-0.103411 0.16024,-0.148212 z m 0.5191,-0.119271 c 0.18517,-0.06473 0.19985,-0.05102 0.0726,0.06678 -0.0883,0.08152 -0.19279,0.118146 -0.23273,0.08143 -0.0398,-0.03671 0.032,-0.103411 0.16004,-0.148212 z m 0.42738,-9.581402 c 0.2498,0 0.35203,0.02452 0.22711,0.05454 -0.12486,0.03 -0.32932,0.03 -0.45423,0 -0.12487,-0.03 -0.0229,-0.05454 0.22712,-0.05454 z m -0.28581,2.432316 c 0.0567,-0.03236 0.18842,-0.0094 0.292,0.05077 0.14722,0.08555 0.12451,0.109977 -0.10342,0.111399 -0.30023,0.0018 -0.37063,-0.05871 -0.18846,-0.16217 z m 1.01817,-4.204227 c 0.36711,0.03997 0.8051,0.128003 0.97333,0.195577 0.28633,0.115037 0.2823,0.118576 -0.0631,0.05545 -0.20295,-0.0371 -0.61174,-0.09792 -0.90846,-0.135148 -0.78693,-0.09878 -0.7885,-0.201548 -10e-4,-0.115864 z m -0.52064,11.202301 c 0.0452,0.04141 0.18742,0.02342 0.31658,-0.04007 0.15335,-0.07533 0.26253,-0.07386 0.31503,0.0043 0.0443,0.06577 -0.005,0.119602 -0.11128,0.119602 -0.10536,0 -0.28411,0.03258 -0.397,0.0724 -0.12096,0.04267 -0.20527,0.0099 -0.20527,-0.07951 0,-0.08355 0.0371,-0.118031 0.0821,-0.07659 z m 0.56693,-4.191258 c 0.17848,0 0.25144,0.02706 0.16211,0.06017 -0.0893,0.03309 -0.23522,0.03309 -0.32445,0 -0.0893,-0.03311 -0.0148,-0.06017 0.16227,-0.06017 z m 0.0915,-2.814058 c 0.1848,-0.06473 0.19987,-0.05102 0.0726,0.06678 -0.088,0.08152 -0.19279,0.118163 -0.2327,0.08143 -0.0398,-0.03671 0.032,-0.103411 0.16004,-0.148212 z m 0.37331,6.859897 c 0.1513,0.0058 0.18181,0.03399 0.0785,0.07205 -0.0936,0.03445 -0.20562,0.03023 -0.24874,-0.0094 -0.0431,-0.03963 0.0336,-0.06782 0.17046,-0.06265 z m 0.12673,-4.18394 c 0.1111,0 0.16618,0.05367 0.12208,0.119271 -0.0441,0.06561 -0.13529,0.119271 -0.20235,0.119271 -0.0671,0 -0.12208,-0.05367 -0.12208,-0.119271 0,-0.06561 0.091,-0.119271 0.20235,-0.119271 z m 0.0573,-2.683624 c 0.0714,0.04055 0.12971,0.09739 0.12971,0.1263 0,0.02893 -0.0583,0.05261 -0.12971,0.05261 -0.0715,0 -0.12972,-0.05684 -0.12972,-0.126316 0,-0.06946 0.0583,-0.09314 0.12972,-0.05259 z m 0.58408,6.650749 c 0.24977,-0.07045 0.45413,-0.08615 0.45413,-0.03489 0,0.09417 -0.78261,0.27842 -0.86417,0.203461 -0.0242,-0.02226 0.16022,-0.09812 0.41004,-0.168571 z m -0.18705,-3.967125 c 0.0757,0 0.10144,0.05367 0.0573,0.119271 -0.0441,0.06561 -0.10611,0.119271 -0.13753,0.119271 -0.0314,0 -0.0572,-0.05367 -0.0572,-0.119271 0,-0.06561 0.062,-0.119271 0.13734,-0.119271 z m 0.84671,-2.614573 c 0.15129,0.0056 0.182,0.034 0.0784,0.07205 -0.0936,0.03445 -0.2056,0.03023 -0.24871,-0.0094 -0.0431,-0.03963 0.0337,-0.06782 0.17029,-0.06265 z m 0.97116,6.128197 c 0.0764,-0.04325 0.1662,-0.05304 0.20026,-0.02176 0.0339,0.03127 -0.028,0.08863 -0.13827,0.127474 -0.22867,0.08066 -0.26891,0.01191 -0.062,-0.105693 z m 0.57537,-9.641712 c 0.42962,0.08388 0.75404,0.286407 0.44774,0.279526 -0.10343,-0.0023 -0.3342,-0.08327 -0.51262,-0.179877 l -0.32445,-0.175656 z m -0.0741,1.389371 c 0.13753,0.0096 0.22355,0.05754 0.19041,0.106653 -0.033,0.04912 -0.14589,0.05907 -0.25053,0.02211 -0.26425,-0.09317 -0.23801,-0.149403 0.06,-0.12878 z m 2.53197,-0.03217 c 0.10311,0 0.22092,0.05044 0.26239,0.112044 0.0414,0.06164 -0.0428,0.103874 -0.18705,0.09389 -0.29636,-0.02049 -0.3642,-0.205945 -0.0754,-0.205945 z m 0.47052,6.972518 c 0.0764,-0.04323 0.16637,-0.05304 0.20026,-0.02176 0.0339,0.03127 -0.0283,0.08863 -0.13845,0.127474 -0.22868,0.08066 -0.2689,0.01191 -0.062,-0.105693 z m 1.97607,-5.831761 c 0.12803,0.0448 0.20003,0.111481 0.16023,0.148195 -0.04,0.03671 -0.14459,7.8e-5 -0.23271,-0.08143 -0.12729,-0.117799 -0.11241,-0.131493 0.0726,-0.06678 z m 5.02328,3.212676 c 0.0715,-0.04055 0.12971,0.02848 0.12971,0.153389 0,0.292594 0.39704,0.621884 0.74984,0.621884 0.16116,0 0.41635,-0.170155 0.61571,-0.410352 0.2035,-0.245185 0.41437,-0.384328 0.52393,-0.345691 0.29673,0.104635 0.50568,-0.628303 0.45964,-1.61234 -0.0112,-0.198424 -0.0705,-0.260926 -0.20781,-0.212471 -0.13734,0.04841 -0.19416,-0.0094 -0.19279,-0.195964 10e-4,-0.214585 0.0257,-0.230792 0.12786,-0.0857 0.10755,0.152892 0.12617,0.148559 0.12785,-0.02982 0.001,-0.114789 -0.0519,-0.208726 -0.11781,-0.208726 -0.0658,0 -0.295,-0.161012 -0.50911,-0.357816 -0.48697,-0.447566 -0.71901,-0.449343 -1.19797,-0.0091 -0.20863,0.191755 -0.37934,0.295571 -0.37934,0.230705 0,-0.248111 0.28152,-0.583657 0.62774,-0.748196 0.5312,-0.252455 1.34414,0.100435 1.67355,0.72643 0.27159,0.516239 0.28554,1.640041 0.0314,2.543496 -0.0832,0.295199 -0.16396,0.605752 -0.17959,0.690109 -0.0149,0.08436 -0.21934,0.339246 -0.45246,0.566415 -0.34621,0.337359 -0.48737,0.399194 -0.77037,0.3375 -0.4664,-0.101675 -0.78486,-0.374096 -1.00607,-0.860716 -0.21706,-0.477499 -0.23177,-0.692084 -0.0539,-0.792944 z m 0.62265,-0.975857 c 0.17754,-0.106488 0.18904,-0.163064 0.0588,-0.288 -0.26667,-0.255565 -0.18863,-0.312698 0.32302,-0.23627 0.54724,0.08175 0.79212,0.486314 0.29439,0.486314 -0.1526,0 -0.39555,0.05803 -0.53973,0.128945 -0.32724,0.160963 -0.43568,0.08861 -0.13622,-0.09097 z m 1.59308,-0.09218 c 0.0872,0.04953 0.003,0.650589 -0.0915,0.650589 -0.0287,0 -0.0389,-0.157308 -0.0229,-0.349566 0.0149,-0.192257 0.0674,-0.32772 0.11464,-0.301023 z m 1.48289,2.392283 c 0.10259,-0.124464 0.15819,-0.268355 0.12338,-0.319758 -0.0345,-0.0514 0.005,-0.132385 0.0895,-0.179986 0.10906,-0.06197 0.12525,-0.0051 0.0577,0.200486 -0.0521,0.157854 -0.10029,0.351792 -0.10697,0.430967 -0.0112,0.151239 -0.3613,0.328637 -0.35417,0.180299 0.003,-0.04713 0.088,-0.187544 0.1904,-0.312008 z m 19.62965,-2.985073 c 0.12543,-0.115103 1.62286,-0.07515 2.14113,0.05714 0.54404,0.138852 1.00491,0.526002 1.00491,0.844149 0,0.229901 -0.49686,0.607341 -0.67001,0.508982 -0.0598,-0.03392 -0.10868,-0.01751 -0.10868,0.03653 0,0.05403 -0.219,0.09706 -0.48667,0.09566 -0.26766,-0.0016 -0.76406,0.02844 -1.1031,0.06635 l -0.61644,0.0689 V 47.9253 c 0,-0.234672 -0.053,-0.596719 -0.1178,-0.804546 -0.065,-0.207828 -0.0843,-0.408745 -0.0431,-0.446481 z m -0.0111,2.227373 c 0.096,-0.218621 0.36047,-0.182046 0.62483,0.08641 0.22702,0.230535 0.22196,0.23516 -0.23944,0.219219 -0.4767,-0.01654 -0.50313,-0.03744 -0.38539,-0.305632 z m 1.10684,-0.157854 c 0.0933,-0.0048 0.38928,-0.0262 0.65749,-0.04748 0.34448,-0.02735 0.5283,0.01897 0.62623,0.157854 0.12785,0.181362 0.13343,0.181127 0.0719,-0.003 -0.0469,-0.140192 0.0439,-0.235001 0.30467,-0.318604 0.45066,-0.144375 0.62454,0.08565 0.27355,0.361865 -0.37824,0.297634 -0.74127,0.326279 -0.97365,0.07684 -0.12265,-0.131674 -0.2796,-0.191093 -0.36967,-0.13996 -0.22283,0.126581 -0.61434,0.138422 -0.69331,0.02099 -0.0368,-0.05484 0.009,-0.103659 0.10291,-0.108472 z m 0.0508,0.375991 c 0.15129,0.0058 0.182,0.034 0.0786,0.07206 -0.0936,0.03445 -0.20565,0.03023 -0.24877,-0.0094 -0.0431,-0.03964 0.0337,-0.06784 0.17047,-0.06264 z m -20.96983,-2.517122 c 0,0.132832 0.0812,0.241522 0.18032,0.241522 0.24048,0 0.13064,-0.814416 -0.14867,-1.103268 -0.11111,-0.114806 -0.16155,-0.208724 -0.11261,-0.208724 0.0493,0 0.0272,-0.107348 -0.0494,-0.238546 -0.28342,-0.486667 -0.36144,-0.21699 -0.12005,0.414475 0.13735,0.359158 0.24978,0.761701 0.24978,0.894541 z m 3.12521,-1.120559 c 0.77937,0.0055 1.41702,-0.03463 1.41702,-0.0892 0,-0.112242 -0.0968,-0.120495 -1.36268,-0.115947 -1.54363,0.0055 -1.66844,0.01389 -1.56838,0.105892 0.0532,0.04907 0.73472,0.09372 1.51404,0.09926 z m 1.12501,2.672248 c 0.51749,0.0011 0.94088,0.04474 0.94088,0.09714 0,0.05242 -0.20409,0.07343 -0.45355,0.04665 -0.24951,-0.02678 -0.55611,-0.0093 -0.68133,0.03863 -0.19005,0.07285 -0.16693,0.103345 0.13901,0.184 0.6131,0.161625 2.07772,0.17117 2.13474,0.01389 0.048,-0.132898 -0.27605,-0.193528 -0.78196,-0.146228 -0.12488,0.01174 -0.2271,-0.04144 -0.2271,-0.118064 0,-0.09058 0.18146,-0.123388 0.5191,-0.09379 0.28549,0.02501 0.51909,0.01538 0.51909,-0.02153 0,-0.03686 0.11687,-0.06706 0.25959,-0.06706 0.14274,0 0.25954,0.03276 0.25954,0.07283 0,0.04007 0.438,0.08322 0.97333,0.09592 0.5906,0.01389 0.97334,-0.02467 0.97334,-0.09838 0,-0.06681 -0.24819,-0.126399 -0.55159,-0.132402 -0.30333,-0.0061 -0.98956,-0.02649 -1.52485,-0.04555 -1.20876,-0.04298 -3.22184,-0.08181 -3.56889,-0.06885 -0.21585,0.0081 -0.22677,0.02914 -0.0648,0.125324 0.10697,0.06359 0.61807,0.116443 1.13552,0.117452 z m -1.00577,1.552364 c 0.0715,0 0.12971,-0.110523 0.12971,-0.245584 0,-0.135065 -0.0583,-0.212409 -0.12971,-0.171868 -0.0715,0.04055 -0.1297,0.151056 -0.1297,0.245585 0,0.09453 0.0583,0.171867 0.1297,0.171867 z m 2.40089,-4.145333 c 0.21754,0.03822 0.32444,0.0033 0.32444,-0.105379 0,-0.09369 -0.13716,-0.162368 -0.32444,-0.162368 -0.17847,0 -0.32445,0.04741 -0.32445,0.105379 0,0.05795 0.14609,0.131013 0.32445,0.162368 z m 4.08798,2.714067 c 0.0715,0 0.12972,-0.05367 0.12972,-0.119271 0,-0.0656 -0.0583,-0.119271 -0.12972,-0.119271 -0.0714,0 -0.12971,0.05367 -0.12971,0.119271 0,0.06561 0.0583,0.119271 0.12971,0.119271 z m 1.72552,-0.735815 c 0.0927,0.07057 0.28233,0.131575 0.42179,0.135594 0.13976,0.0041 0.96896,0.02911 1.84335,0.05577 0.92026,0.02806 1.58975,0.0023 1.58975,-0.06135 0,-0.06041 -0.0439,-0.110291 -0.0974,-0.11087 -0.27181,-0.003 -3.11407,-0.09248 -3.31346,-0.104403 -0.20815,-0.0124 -0.21336,-0.04518 -0.0522,-0.32758 0.17792,-0.312204 0.18626,-0.313694 1.6588,-0.300411 0.81396,0.0073 1.68431,0.01961 1.93416,0.0272 0.90169,0.02754 1.24012,-0.0089 1.05967,-0.113962 -0.1619,-0.09435 -0.8931,-0.134784 -3.2659,-0.180648 -1.20268,-0.02325 -1.94663,0.201041 -1.94663,0.586866 0,0.146012 0.076,0.323217 0.16823,0.393782 z m 4.52004,0.09127 c 0.61453,-0.09031 1.02195,-0.264653 1.02195,-0.437292 0,-0.07505 -0.1005,-0.06986 -0.27093,0.01389 -0.26222,0.128979 -0.79113,0.254471 -1.12416,0.266734 -0.0893,0.0033 -0.16229,0.05757 -0.16229,0.120594 0,0.06754 0.22003,0.08229 0.53538,0.03597 z m 1.93808,-0.309626 c 0.0671,0 0.12209,-0.107348 0.12209,-0.238546 0,-0.26312 -0.20424,-0.324821 -0.29611,-0.08945 -0.0705,0.180412 0.009,0.327999 0.174,0.327999 z"
         style="fill:#000000;stroke-width:0.124413"
         id="path505" />
      <text
         xml:space="preserve"
         style="font-style:normal;font-variant:normal;font-weight:normal;font-stretch:normal;font-size:12.7px;font-family:C059;-inkscape-font-specification:C059;fill:#000000;stroke-width:0.264583"
         x="95.508751"
         y="65.152687"
         id="text586"><tspan
           id="tspan584"
           style="font-style:normal;font-variant:normal;font-weight:normal;font-stretch:normal;font-size:12.7px;font-family:C059;-inkscape-font-specification:C059;stroke-width:0.264583"
           x="95.508751"
           y="65.152687">Auberge</tspan></text>
      <text
         xml:space="preserve"
         style="font-style:normal;font-variant:normal;font-weight:normal;font-stretch:normal;font-size:12.7px;font-family:C059;-inkscape-font-specification:C059;fill:#000000;stroke-width:0.264583"
         x="111.29264"
         y="77.425148"
         id="text590"><tspan
           id="tspan588"
           style="font-style:normal;font-variant:normal;font-weight:normal;font-stretch:normal;font-size:12.7px;font-family:C059;-inkscape-font-specification:C059;stroke-width:0.264583"
           x="111.29264"
           y="77.425148">Du</tspan></text>
      <text
         xml:space="preserve"
         style="font-style:normal;font-variant:normal;font-weight:normal;font-stretch:normal;font-size:12.7px;font-family:C059;-inkscape-font-specification:C059;fill:#000000;stroke-width:0.264583"
         x="94.407227"
         y="89.57325"
         id="text594"><tspan
           id="tspan592"
           style="font-style:normal;font-variant:normal;font-weight:normal;font-stretch:normal;font-size:12.7px;font-family:C059;-inkscape-font-specification:C059;stroke-width:0.264583"
           x="94.407227"
           y="89.57325">Saulnois</tspan></text>
      <path
         style="fill:#000000;stroke:#000000;stroke-width:0.352494;stroke-opacity:1"
         d="m 94.105758,92.496312 54.238062,0.07182"
         id="path776" />
      <text
         xml:space="preserve"
         style="font-style:normal;font-variant:normal;font-weight:normal;font-stretch:normal;font-size:3.52778px;font-family:FreeMono;-inkscape-font-specification:FreeMono;letter-spacing:0.264583px;fill:#000000;stroke:#000000;stroke-width:0.264583;stroke-opacity:1"
         x="101.12739"
         y="97.757187"
         id="text1457"><tspan
           id="tspan1455"
           style="font-style:normal;font-variant:normal;font-weight:normal;font-stretch:normal;font-size:3.52778px;font-family:FreeMono;-inkscape-font-specification:FreeMono;stroke-width:0.264583"
           x="101.12739"
           y="97.757187">RESTAURANT ET BAR</tspan></text>
    </g>
  </g>
</svg>
